<svg xmlns="http://www.w3.org/2000/svg" viewBox="0 0 512 512">
  <defs>
    <linearGradient id="bg" x1="0%" x2="100%" y1="0%" y2="100%">
      <stop offset="0%" stop-color="#f4ede4" />
      <stop offset="100%" stop-color="#ead5bf" />
    </linearGradient>
    <linearGradient id="heart" x1="0%" x2="100%" y1="0%" y2="100%">
      <stop offset="0%" stop-color="#d35d6e" />
      <stop offset="100%" stop-color="#4c7f7a" />
    </linearGradient>
  </defs>
  <rect width="512" height="512" rx="124" fill="url(#bg)" />
  <circle cx="180" cy="168" r="48" fill="#4c7f7a" opacity="0.16" />
  <circle cx="348" cy="328" r="58" fill="#d35d6e" opacity="0.18" />
  <path
    d="M256 366c-12-10-24-20-34-29-57-49-94-82-94-132 0-38 30-67 68-67 22 0 43 11 56 28 13-17 34-28 56-28 38 0 68 29 68 67 0 50-37 83-94 132-10 9-22 19-34 29z"
    fill="url(#heart)"
  />
  <path d="M167 258h178" stroke="#fffaf2" stroke-linecap="round" stroke-width="24" />
  <path d="M256 169v178" stroke="#fffaf2" stroke-linecap="round" stroke-width="24" />
</svg>
